<?xml version="1.0" standalone="no"?>
<!DOCTYPE svg PUBLIC "-//W3C//DTD SVG 20010904//EN"
 "http://www.w3.org/TR/2001/REC-SVG-20010904/DTD/svg10.dtd">
<svg version="1.0" xmlns="http://www.w3.org/2000/svg"
 width="1440.000000pt" height="1776.000000pt" viewBox="0 0 1440.000000 1776.000000"
 preserveAspectRatio="xMidYMid meet">

<g transform="translate(0.000000,1776.000000) scale(0.100000,-0.100000)"
fill="#000000" stroke="none">
<path d="M260 13846 c0 -3658 1 -3788 35 -4186 158 -1821 786 -3614 1820
-5190 951 -1450 2246 -2665 3780 -3545 358 -205 819 -437 1183 -595 l122 -53
168 73 c221 96 765 365 972 481 2047 1140 3617 2783 4640 4854 683 1382 1068
2833 1150 4330 6 124 10 1455 10 3838 l0 3647 -6940 0 -6940 0 0 -3654z m2319
2939 c182 -52 238 -57 721 -65 507 -9 611 -19 847 -79 583 -150 977 -518 1278
-1193 36 -81 65 -151 65 -156 0 -4 -20 -13 -44 -20 -88 -23 -136 -96 -231
-353 -90 -243 -190 -423 -305 -551 l-52 -58 -190 0 -190 0 39 48 c255 308 331
776 196 1206 -116 372 -411 641 -818 746 -172 45 -254 54 -465 54 -254 0 -443
-28 -668 -99 -46 -15 -85 -25 -86 -23 -5 7 -209 543 -214 562 -4 15 -2 18 13
12 10 -3 57 -17 104 -31z m1033 -533 c15 -15 37 -111 49 -217 14 -123 6 -367
-16 -485 -15 -77 -54 -220 -61 -220 -1 0 -19 35 -40 78 -54 109 -171 226 -274
275 -97 46 -197 67 -312 67 -263 0 -489 -93 -679 -280 -177 -175 -282 -368
-345 -640 -35 -146 -43 -381 -20 -538 59 -398 259 -723 571 -927 106 -70 160
-96 286 -140 310 -108 694 -99 997 23 l52 22 0 -184 0 -183 -72 -21 c-503
-145 -971 -112 -1405 97 -507 245 -894 706 -1107 1320 -37 105 -76 247 -76
274 0 9 14 17 34 21 89 17 149 94 290 376 131 262 187 355 304 505 79 100 282
299 386 377 315 235 686 374 1092 408 123 10 333 5 346 -8z m2603 -233 c9 -35
18 -122 22 -194 15 -337 -101 -596 -337 -753 l-65 -44 -5 104 c-5 87 -10 113
-37 169 -50 108 -127 167 -236 183 l-47 7 -55 109 c-30 59 -74 142 -98 183
l-44 74 241 6 c262 5 339 18 446 72 60 31 131 93 161 142 26 42 31 36 54 -58z
m-2396 -74 c146 -50 382 -85 573 -85 l78 0 27 -42 c38 -62 108 -214 126 -275
l15 -53 -124 0 -124 0 0 -635 0 -635 473 0 c507 0 554 4 660 53 29 13 77 47
108 75 31 29 59 52 62 52 3 0 13 -33 23 -72 29 -112 27 -365 -4 -472 -50 -173
-160 -326 -301 -421 -38 -25 -70 -45 -72 -45 -2 0 -4 35 -5 78 -2 183 -84 312
-228 359 -42 14 -105 17 -350 21 l-300 4 -96 87 c-154 140 -272 218 -402 266
l-48 18 0 638 0 639 -69 183 c-38 100 -79 206 -90 235 -11 28 -17 52 -13 52 4
0 40 -11 81 -25z m-716 -306 l57 -12 0 -688 0 -689 28 0 c68 0 305 -22 382
-35 170 -30 294 -70 440 -145 208 -108 461 -354 714 -699 370 -502 419 -561
530 -635 31 -20 86 -49 123 -63 61 -24 81 -27 188 -27 103 0 131 4 200 27 44
14 114 46 155 71 l75 44 3 -25 c5 -33 -33 -153 -70 -228 -100 -198 -296 -390
-503 -494 -126 -64 -137 -63 -215 5 -181 159 -307 326 -708 936 -343 522 -515
698 -782 797 -124 46 -335 81 -490 81 l-70 0 0 -308 0 -308 -82 8 c-95 9 -223
39 -320 75 l-68 25 0 1133 0 1134 58 11 c31 6 62 13 67 15 24 9 237 4 288 -6z
m1056 -2329 c38 -47 104 -137 147 -200 l79 -115 6 -250 c7 -284 14 -324 85
-471 46 -97 112 -179 184 -229 49 -34 45 -38 -65 -58 -311 -59 -666 -1 -849
139 l-47 36 56 59 c65 68 115 166 140 279 15 64 18 148 22 569 l5 494 85 -84
c46 -46 115 -122 152 -169z m-1324 -586 c50 -8 144 -19 210 -22 l120 -7 7
-105 c13 -203 71 -349 185 -470 36 -39 79 -78 95 -87 15 -10 28 -20 28 -24 0
-4 -33 -15 -72 -25 -110 -26 -370 -31 -498 -9 -168 28 -308 82 -387 150 l-42
36 44 40 c108 99 151 219 171 467 6 79 7 83 28 78 11 -3 62 -13 111 -22z"/>
</g>
</svg>
